<svg xmlns="http://www.w3.org/2000/svg" width="99" height="88" viewBox="0 0 99 88">
  <g id="MDI_account-group" data-name="MDI / account-group" opacity="0.6">
    <g id="Boundary" fill="#fbf2f2" stroke="rgba(0,0,0,0)" stroke-width="1" opacity="0">
      <rect width="98.76" height="88" stroke="none"/>
      <rect x="0.5" y="0.5" width="97.76" height="87" fill="none"/>
    </g>
    <path id="Path_account-group" data-name="Path / account-group" d="M49.5,5.5c7.974,0,14.438,8.478,14.438,18.936S57.474,43.372,49.5,43.372,35.062,34.894,35.063,24.436,41.526,5.5,49.5,5.5M20.625,19.026A10.1,10.1,0,0,1,26.936,21.3,36.906,36.906,0,0,0,31.6,42.723c-2.062,5.194-6.188,8.765-10.972,8.765-6.835,0-12.375-7.267-12.375-16.231s5.54-16.231,12.375-16.231m57.75,0c6.835,0,12.375,7.267,12.375,16.231S85.21,51.487,78.375,51.487c-4.785,0-8.91-3.571-10.972-8.765A36.906,36.906,0,0,0,72.064,21.3a10.1,10.1,0,0,1,6.311-2.272M22.688,74.481c0-11.2,12-20.289,26.813-20.289s26.813,9.089,26.813,20.289v9.468H22.688V74.481M0,83.949V75.834c0-7.52,7.8-13.85,18.356-15.69a26.311,26.311,0,0,0-3.919,14.337v9.468H0m99,0H84.563V74.481a26.311,26.311,0,0,0-3.919-14.337C91.2,61.983,99,68.313,99,75.834Z" transform="translate(0 -0.5)" fill="#fbf2f2"/>
  </g>
</svg>
