<svg xmlns="http://www.w3.org/2000/svg" width="99" height="88" viewBox="0 0 99 88">
  <g id="MDI_pencil-ruler" data-name="MDI / pencil-ruler" opacity="0.6">
    <g id="Boundary" fill="#fbf2f2" stroke="rgba(0,0,0,0)" stroke-width="1" opacity="0">
      <rect width="99" height="88" stroke="none"/>
      <rect x="0.5" y="0.5" width="98" height="87" fill="none"/>
    </g>
    <path id="Path_pencil-ruler" data-name="Path / pencil-ruler" d="M8.69,65.084v15.06h17l50.15-44.457-17-15.06L8.69,65.084m88.92,4.458L78.339,86.61,54.76,65.727l8.026-7.108,4.534,4.016,11.2-9.96,6.439,5.7-6.62,5.7L83.145,68.1l6.439-5.622,8.026,7.068M25.06,39.3,1.39,18.458,20.661,1.39,28.642,8.5l-11.2,9.96,4.852,4.257,11.155-9.96,6.439,5.7-6.439,5.663,4.534,4.016L25.06,39.3M88.995,23.92a3.685,3.685,0,0,0,0-5.663L78.384,9.02a4.937,4.937,0,0,0-6.394,0L63.647,16.37l17,15.06Z" transform="translate(-0.39 -0.39)" fill="#fbf2f2"/>
  </g>
</svg>
