<svg xmlns="http://www.w3.org/2000/svg" width="88" height="99" viewBox="0 0 88 99">
  <g id="MDI_package-variant" data-name="MDI / package-variant" opacity="0.6">
    <g id="Boundary" fill="#ebebeb" stroke="rgba(0,0,0,0)" stroke-width="1" opacity="0">
      <rect width="88" height="99" stroke="none"/>
      <rect x="0.5" y="0.5" width="87" height="98" fill="none"/>
    </g>
    <path id="Path_package-variant" data-name="Path / package-variant" d="M3.553,44.56a5.133,5.133,0,0,1-1.5-6.507l6.07-12.3a4.143,4.143,0,0,1,1.9-2l31.687-20.9a3.539,3.539,0,0,1,4.613,0L78.3,23.945a4.426,4.426,0,0,1,1.781,2.185L85.947,38.1a5.189,5.189,0,0,1-1.457,6.46l-4.047,2.755v23.56a4.869,4.869,0,0,1-2.145,4.18l-31.97,21.09a3.539,3.539,0,0,1-4.613,0L9.744,75.055A4.869,4.869,0,0,1,7.6,70.875V44.56a3.6,3.6,0,0,1-4.047,0M44.021,12.212h0V44.038h0L68.141,28.125,44.021,12.212M15.693,68.073,39.975,84.128V52.255L15.693,36.248V68.073m56.656,0v-15.3L52.115,66.552a3.684,3.684,0,0,1-4.047.048V84.128L72.349,68.073M51.508,55.96,76.922,38.717l-2.347-4.8L49.161,51.163Z" transform="translate(-0.49)" fill="#ebebeb"/>
  </g>
</svg>
